:SAMPLES-PER-SECOND 30
:FRAME-RANGE 1-2643
:FULLY-SPECIFIED
:DEGREES
1074
root  -10.3375 35.1049 -49.7427 73.804 -79.8321 -72.8792
RightUpLeg  -35.9615 -25.0209 0.830374
RightLeg  28.6077 -0.961452 -0.803996
RightFoot  11.1275 -1.81196 9.4909
RightToes  7.56698e-010 0 -3.6325e-017
Spine  9.76024 -2.4962 6.44356
Spine1  -5.36463 -0.855466 -3.50448
HEad  -4.49178 65.745 -16.4459
LeftShoulder1  1.11455 0.743841 -34.2995
LeftArm  -0.133745 -17.9385 -33.6867
LeftForeArm  19.7959 -42.6702 -8.99531
LeftHand  0.0269071 -2.12195 -0.238634
RightShoulder  0.285977 -2.65724 28.802
RightArm  17.894 -14.9794 9.11097
RightForeArm  -11.4212 40.8684 10.3759
RightHand  0.195757 -1.17586 5.62875
LeftUpLeg  7.28897 9.86567 3.27728
LeftLeg  54.0062 8.15497 12.333
LeftFoot  -3.72172 0.460925 -6.58267
LeftToes  1.48244e-010 1.61973e-010 3.308e-011
1075
root  -12.8661 34.2523 -49.9308 96.6506 -79.4219 -98.6615
RightUpLeg  -34.6363 -13.9938 -1.78908
RightLeg  40.6232 -5.57569 -5.39777
RightFoot  0.848066 -1.37361 12.8689
RightToes  7.56698e-010 0 -3.6325e-017
Spine  11.9062 -1.81387 11.9872
Spine1  -5.59718 0.978733 -5.29565
HEad  0.648424 61.5828 -12.4864
LeftShoulder1  1.00496 0.997368 -34.0117
LeftArm  -2.58846 -11.3708 -29.1596
LeftForeArm  18.9531 -43.9489 -9.49754
LeftHand  0.0582854 -2.08371 -0.732322
RightShoulder  1.05165 -0.451504 28.6733
RightArm  12.7955 -9.17699 7.76661
RightForeArm  -12.9538 39.1991 9.89015
RightHand  0.215015 -1.15127 6.12353
LeftUpLeg  2.68625 12.7923 2.14109
LeftLeg  71.5859 1.74076 6.80296
LeftFoot  -4.12926 0.584569 -8.87152
LeftToes  1.48244e-010 1.61973e-010 3.308e-011
1076
root  -15.1995 33.1253 -49.9764 112.783 -75.6176 -117.944
RightUpLeg  -33.3122 -4.59079 -1.46799
RightLeg  51.0283 -5.25765 -7.30679
RightFoot  -6.9913 -0.746849 18.2584
RightToes  7.56698e-010 0 -3.6325e-017
Spine  14.8626 -2.0439 18.5128
Spine1  -5.784 2.28819 -7.87976
HEad  1.36178 54.8009 -13.4075
LeftShoulder1  0.695139 1.74138 -33.3529
LeftArm  -4.95605 -2.60533 -27.4336
LeftForeArm  19.3293 -48.1518 -11.097
LeftHand  0.085936 -1.25276 -1.39038
RightShoulder  2.88171 4.74776 29.001
RightArm  7.5894 -0.618314 6.42743
RightForeArm  -12.8857 35.06 8.59364
RightHand  0.210162 -0.797508 5.46993
LeftUpLeg  -5.50556 16.3577 2.02155
LeftLeg  89.2928 -0.498453 10.3654
LeftFoot  -4.98132 0.389847 -6.47563
LeftToes  1.48244e-010 1.61973e-010 3.308e-011
1077
root  -17.4947 32.3559 -49.893 112.26 -73.3427 -119.634
RightUpLeg  -30.0576 -2.63831 -0.766702
RightLeg  57.353 -4.01519 -7.20531
RightFoot  -13.9922 0.38111 20.4081
RightToes  7.56698e-010 0 -3.6325e-017
Spine  16.6937 -2.37201 19.9149
Spine1  -4.83608 1.76231 -2.33575
HEad  4.19387 43.5791 -12.673
LeftShoulder1  0.591052 1.96876 -32.4161
LeftArm  -5.29837 6.69519 -30.2164
LeftForeArm  19.4025 -51.7407 -12.7349
LeftHand  0.151025 -1.21207 -2.55334
RightShoulder  4.66499 10.2821 27.8439
RightArm  1.44341 7.19132 5.06019
RightForeArm  -10.8476 31.7712 7.56873
RightHand  0.172541 -0.661181 4.36088
LeftUpLeg  -17.7373 15.7053 0.0240241
LeftLeg  101.065 -2.49966 9.51166
LeftFoot  -6.53667 0.172932 -3.18663
LeftToes  1.48244e-010 1.61973e-010 3.308e-011
1078
root  -19.9576 31.6569 -49.6567 114.811 -72.4218 -124.517
RightUpLeg  -25.6409 -1.51628 -2.46064
RightLeg  62.113 -1.98401 -4.65821
RightFoot  -20.7451 1.74321 22.6456
RightToes  7.56698e-010 0 -3.6325e-017
Spine  18.5631 -1.52798 21.0926
Spine1  -5.81758 2.60515 -0.0951411
HEad  7.2407 27.282 -9.72309
LeftShoulder1  0.747617 1.48921 -31.0282
LeftArm  -3.13666 12.5911 -33.9161
LeftForeArm  25.2152 -54.8174 -13.873
LeftHand  0.238423 -2.08014 -3.54136
RightShoulder  5.63869 12.983 28.1919
RightArm  -5.86045 13.2369 3.64349
RightForeArm  -7.67592 32.0354 7.47561
RightHand  0.216654 -0.0101449 4.70377
LeftUpLeg  -29.6199 14.2396 -2.65203
LeftLeg  104.867 -2.0507 5.82257
LeftFoot  -7.24144 0.25899 -6.02027
LeftToes  1.48244e-010 1.61973e-010 3.308e-011
1079
root  -22.5548 31.1752 -49.2496 123.337 -70.065 -135.823
RightUpLeg  -20.123 2.34869 -4.26806
RightLeg  64.347 -0.603868 -2.02043
RightFoot  -26.0163 2.9106 23.6759
RightToes  7.56698e-010 0 -3.6325e-017
Spine  20.8985 -0.570967 22.4827
Spine1  -6.70592 4.02656 -0.62993
HEad  8.34542 8.55392 -6.08704
LeftShoulder1  0.772625 1.33584 -29.5423
LeftArm  -5.44094 16.7682 -36.5472
LeftForeArm  32.7017 -60.5015 -16.9501
LeftHand  0.283091 -2.16008 -4.18502
RightShoulder  6.99811 15.9621 29.946
RightArm  -10.5697 19.2766 3.48134
RightForeArm  -3.15093 33.7396 7.69494
RightHand  0.245117 0.684186 4.63144
LeftUpLeg  -38.4939 13.6745 -2.37125
LeftLeg  101.214 -1.05358 3.32007
LeftFoot  -8.41699 0.20093 -5.8933
LeftToes  1.48244e-010 1.61973e-010 3.308e-011
1080
root  -25.137 31.0828 -48.6135 131.948 -67.1476 -146.024
RightUpLeg  -14.8566 7.24105 -6.54085
RightLeg  63.0604 0.32169 0.0922892
RightFoot  -29.3914 3.85493 25.1677
RightToes  7.56698e-010 0 -3.6325e-017
Spine  22.209 0.273369 22.4272
Spine1  -7.20063 4.75933 -0.611573
HEad  8.85967 -12.353 -1.63831
LeftShoulder1  0.62446 1.67276 -27.9705
LeftArm  -12.2746 18.859 -38.3173
LeftForeArm  38.0835 -67.1973 -23.2432
LeftHand  0.270171 -1.49307 -4.43872
RightShoulder  8.99873 20.1388 32.0074
RightArm  -11.1867 23.5314 4.88864
RightForeArm  0.198233 37.6114 8.62863
RightHand  0.242756 0.754733 4.52553
LeftUpLeg  -44.5001 12.6169 0.691398
LeftLeg  91.1143 -0.305165 0.766313
LeftFoot  -9.0449 0.173801 -5.96517
LeftToes  1.48244e-010 1.61973e-010 3.308e-011
1081
root  -27.5342 31.3924 -47.7648 139.996 -64.9383 -154.156
RightUpLeg  -10.4541 11.7816 -10.026
RightLeg  58.3233 1.20256 1.62581
RightFoot  -30.5106 4.46122 27.1893
RightToes  7.56698e-010 0 -3.6325e-017
Spine  22.6475 1.23848 19.8196
Spine1  -7.81141 4.72016 0.841161
HEad  7.61744 -33.3816 2.45502
LeftShoulder1  0.531181 1.81148 -25.1595
LeftArm  -19.998 19.7157 -38.6486
LeftForeArm  54.1883 -75.8513 -41.7739
LeftHand  0.202875 -0.0093777 -4.39807
RightShoulder  11.0882 23.418 35.0389
RightArm  -8.05023 25.954 7.30828
RightForeArm  4.39476 44.2685 10.6287
RightHand  0.344831 0.968575 6.21615
LeftUpLeg  -47.0152 9.52152 4.99736
LeftLeg  75.3608 -1.04813 -3.46404
LeftFoot  -8.19182 0.223928 -6.35662
LeftToes  1.48244e-010 1.61973e-010 3.308e-011
1082
root  -29.9558 31.9057 -46.6974 145.767 -61.9399 -158.775
RightUpLeg  -6.27913 15.8366 -12.9184
RightLeg  50.1004 2.17462 2.42738
RightFoot  -29.4553 4.62214 29.6478
RightToes  7.56698e-010 0 -3.6325e-017
Spine  22.0455 1.76957 16.3948
Spine1  -7.75302 3.71241 5.12478
HEad  4.73968 -50.5282 6.39807
LeftShoulder1  0.521128 1.63938 -21.5461
LeftArm  -27.1516 21.004 -36.1851
LeftForeArm  111.716 -80.0461 -103.227
LeftHand  0.084706 2.41058 -3.91258
RightShoulder  12.8258 24.9172 38.8281
RightArm  -0.59791 28.1386 11.6288
RightForeArm  11.3302 52.6044 13.8671
RightHand  0.398078 1.269 6.83194
LeftUpLeg  -46.0392 4.09873 11.9187
LeftLeg  57.8534 -3.79447 -5.9715
LeftFoot  -6.75859 0.295143 -6.36029
LeftToes  1.48244e-010 1.61973e-010 3.308e-011
1083
root  -32.5096 32.4142 -45.3741 151.906 -57.3971 -163.577
RightUpLeg  -2.92552 20.3786 -16.8289
RightLeg  39.5762 3.5105 2.83054
RightFoot  -25.77 4.10063 32.9279
RightToes  7.56698e-010 0 -3.6325e-017
Spine  21.2974 2.40565 11.4922
Spine1  -6.92028 2.33664 11.8995
HEad  0.923228 -61.2239 10.1787
LeftShoulder1  0.535574 1.32769 -17.9733
LeftArm  -33.5395 23.0963 -29.9689
LeftForeArm  147.851 -71.7601 -147.455
LeftHand  -0.0461646 5.83289 -2.89779
RightShoulder  14.4359 25.4542 43.2664
RightArm  8.15384 27.8207 16.1849
RightForeArm  23.1519 61.0823 18.5034
RightHand  0.520992 1.79682 8.25968
LeftUpLeg  -42.3331 -1.37527 18.7608
LeftLeg  43.2667 -6.43926 -6.06927
LeftFoot  -5.31471 0.360369 -6.2373
LeftToes  1.48244e-010 1.61973e-010 3.308e-011
1084
root  -35.1689 32.7583 -43.8139 158.091 -51.1696 -169.048
RightUpLeg  -2.40857 24.0644 -23.6053
RightLeg  29.6886 7.02119 4.08369
RightFoot  -18.2827 2.28502 38.3418
RightToes  7.56698e-010 0 -3.6325e-017
Spine  21.195 3.02541 6.41064
Spine1  -5.46207 1.10879 17.6157
HEad  -2.76715 -66.1531 13.2366
LeftShoulder1  0.591192 0.829756 -15.2607
LeftArm  -38.9305 23.1642 -21.1518
LeftForeArm  151.99 -63.0473 -158.811
LeftHand  -0.0757612 8.70513 -0.933135
RightShoulder  15.5437 25.2137 47.1725
RightArm  16.5222 24.7228 18.5969
RightForeArm  34.6992 68.8698 26.3727
RightHand  0.564892 1.80612 8.95343
LeftUpLeg  -37.8972 -5.53498 21.9037
LeftLeg  37.2412 -10.0074 -7.72189
LeftFoot  -4.4815 0.710175 -11.3735
LeftToes  1.48244e-010 1.61973e-010 3.308e-011
1085
root  -37.9213 32.707 -41.9883 163.279 -41.4794 -172.811
RightUpLeg  -10.4957 23.3043 -31.5321
RightLeg  27.048 9.59283 5.0673
RightFoot  -5.39261 -2.17988 39.6562
RightToes  7.56698e-010 0 -3.6325e-017
Spine  22.9791 3.90397 5.16815
Spine1  -6.44759 1.96753 19.1489
HEad  -5.69971 -67.6765 15.8355
LeftShoulder1  0.546918 0.761865 -12.8901
LeftArm  -42.5859 18.3208 -14.2997
LeftForeArm  149.839 -57.7261 -162.518
LeftHand  -0.0315808 9.79998 0.551939
RightShoulder  15.7901 24.4097 49.362
RightArm  22.7396 21.9488 19.4143
RightForeArm  43.6068 73.4807 35.3506
RightHand  0.591314 1.37835 10.0145
LeftUpLeg  -37.0716 0.739435 19.1096
LeftLeg  40.7367 -11.3082 -9.90245
LeftFoot  3.33468 2.22918 -17.3552
LeftToes  1.48244e-010 1.61973e-010 3.308e-011
1086
root  -40.4993 32.7186 -39.8261 167.058 -30.3379 -174.298
RightUpLeg  -23.0602 16.1252 -33.4312
RightLeg  30.6443 5.27087 3.13025
RightFoot  7.84273 -2.91679 17.4591
RightToes  7.56698e-010 0 -3.6325e-017
Spine  25.6335 4.04359 6.69644
Spine1  -7.22201 3.07622 17.7352
HEad  -9.32852 -65.9771 19.5824
LeftShoulder1  0.549475 0.58597 -11.661
LeftArm  -43.3283 11.8584 -9.4449
LeftForeArm  148.377 -55.2609 -163.859
LeftHand  -0.0316157 9.92941 0.553087
RightShoulder  16.9602 25.3085 51.3428
RightArm  24.9211 21.5779 19.4565
RightForeArm  45.4273 73.6319 35.3816
RightHand  0.697059 2.11324 10.5911
LeftUpLeg  -39.4912 9.10263 15.7282
LeftLeg  46.3904 -7.38438 -7.8264
LeftFoot  3.84473 1.20503 -9.20135
LeftToes  1.48244e-010 1.61973e-010 3.308e-011
1087
root  -42.8646 32.4951 -37.9024 168.564 -22.0823 -176.977
RightUpLeg  -31.3138 5.27974 -30.6249
RightLeg  41.8589 -0.115617 -0.401306
RightFoot  4.49837 -2.18084 15.8081
RightToes  7.56698e-010 0 -3.6325e-017
Spine  28.071 3.6548 5.33511
Spine1  -5.39252 2.82176 14.6797
HEad  -11.1775 -63.5626 21.2037
LeftShoulder1  0.744513 -0.23425 -12.8659
LeftArm  -37.3615 5.51645 -8.7793
LeftForeArm  148.668 -57.5505 -162.532
LeftHand  -0.0604233 9.45586 -0.236816
RightShoulder  19.0274 27.8712 52.8069
RightArm  23.2311 22.4433 19.0865
RightForeArm  36.7439 69.0416 26.3212
RightHand  0.595917 1.98472 9.20576
LeftUpLeg  -40.1798 13.184 10.8491
LeftLeg  49.7385 -3.1822 -3.57849
LeftFoot  3.40354 0.496439 -3.99634
LeftToes  1.48244e-010 1.61973e-010 3.308e-011
